<svg width="56" height="56" viewBox="0 0 56 56" fill="none" xmlns="http://www.w3.org/2000/svg">
<path d="M32.987 2.05025C35.7208 4.78392 35.7208 9.21608 32.987 11.9497C30.2533 14.6834 25.8211 14.6834 23.0876 11.9497C20.3539 9.21608 20.3539 4.78392 23.0876 2.05025C25.8211 -0.683415 30.2533 -0.683415 32.987 2.05025Z" fill="white"/>
<path d="M54.7423 21.014C53.2576 19.7762 51.0505 19.9763 49.8129 21.461C49.8125 21.4614 49.8122 21.4617 49.812 21.462C48.7858 22.6928 47.2705 23.4103 45.668 23.4243H45.6143C44.0307 23.425 42.5255 22.7359 41.4913 21.5367C39.7133 19.488 39.7133 19.4694 39.5547 19.313C38.3931 18.1489 36.8149 17.4963 35.1703 17.5H20.8297H20.8297C19.1857 17.4959 17.6082 18.1486 16.4477 19.313C16.2867 19.4694 16.261 19.5184 14.511 21.5367C13.4759 22.736 11.9699 23.425 10.3857 23.4243H10.332C8.73026 23.4117 7.21494 22.696 6.188 21.4667C4.88723 20.0368 2.6736 19.9322 1.24377 21.233C-0.101734 22.4571 -0.285332 24.5077 0.821331 25.9513C3.16134 28.7555 6.61455 30.391 10.2667 30.4243H10.3857C13.5402 30.4376 16.5786 29.2353 18.8697 27.0667C19.1047 26.8464 19.4738 26.8583 19.6942 27.0933C19.7954 27.2011 19.8518 27.3434 19.852 27.4913L19.8823 39.76C19.8839 40.2537 20.196 40.6929 20.6617 40.8567L27.2253 43.1737C27.7275 43.3508 28.2749 43.3508 28.777 43.1737L35.3383 40.8567C35.8038 40.6929 36.116 40.2537 36.1177 39.76L36.148 27.4867C36.1485 27.1644 36.41 26.9038 36.7323 26.9043C36.8802 26.9045 37.0223 26.9607 37.1303 27.062C39.4214 29.2301 42.4599 30.4318 45.6143 30.4173H45.7333C49.3906 30.3861 52.8488 28.7467 55.188 25.935C56.4205 24.4519 56.221 22.2515 54.7423 21.014Z" fill="white"/>
<path d="M41.6967 41.0946L33.0633 44.1419C32.8307 44.2234 32.6751 44.4434 32.676 44.6903C32.6762 44.9369 32.8312 45.1572 33.0633 45.2409L38.045 47.0003C38.8547 47.2833 39.5913 47.7432 40.201 48.3466C40.5188 48.6609 40.9883 48.7659 41.4097 48.6173L44.023 47.6839C45.8346 47.0096 46.7567 44.9945 46.0826 43.1829C45.4239 41.4131 43.4803 40.4849 41.6897 41.0853L41.6967 41.0946Z" fill="white"/>
<path d="M37.2703 49.2011L14.3057 41.0951C12.4941 40.4207 10.4789 41.3429 9.80471 43.1545C9.13052 44.9661 10.0526 46.9814 11.8642 47.6555C11.9 47.6688 11.9361 47.6816 11.9723 47.6937L34.937 55.7997C35.3115 55.9332 35.7061 56.0011 36.1037 56.0004C38.0366 55.9995 39.603 54.4319 39.6023 52.499C39.6016 51.0169 38.6675 49.6957 37.2703 49.2011Z" fill="white"/>
</svg>
